HIERARCHY
ROOT Hips
{
	OFFSET 0.00000 0.00000 0.00000
	CHANNELS 6 Xposition Yposition Zposition Zrotation Yrotation Xrotation 
	JOINT RightUpLegDummy
	{
		OFFSET 0 0 0
		CHANNELS 3 Zrotation Yrotation Xrotation
		JOINT RightUpLeg
		{
			OFFSET -3.52197 -3.41223 0.04002
			CHANNELS 3 Zrotation Yrotation Xrotation
			JOINT RightLeg
			{
				OFFSET 0.00006 -17.42390 1.60435
				CHANNELS 3 Zrotation Yrotation Xrotation
				JOINT RightFoot
				{
					OFFSET 0.06153 -16.50078 -1.63901
					CHANNELS 3 Zrotation Yrotation Xrotation
					JOINT RightToes
					{
						OFFSET 0.00298 -1.73825 3.34613
						CHANNELS 3 Zrotation Yrotation Xrotation
						End Site
						{
							OFFSET 0.00480 -0.05416 3.85043
						}
					}
				}
			}
		}
	}
	JOINT SpineDummy
	{
		OFFSET 0 0 0
		CHANNELS 3 Zrotation Yrotation Xrotation
		JOINT Spine
		{
			OFFSET 0.00000 4.68130 0.00000
			CHANNELS 3 Zrotation Yrotation Xrotation
			JOINT Spine1
			{
				OFFSET -0.00000 10.10138 0.05002
				CHANNELS 3 Zrotation Yrotation Xrotation
				JOINT HEadDummy
				{
					OFFSET 0 0 0
					CHANNELS 3 Zrotation Yrotation Xrotation
					JOINT Head
					{
						OFFSET -0.00000 3.43865 0.00438
						CHANNELS 3 Zrotation Yrotation Xrotation
						End Site
						{
							OFFSET -0.11417 5.02924 0.98962
						}
					}
				}
				JOINT LeftShoulder1Dummy
				{
					OFFSET 0 0 0
					CHANNELS 3 Zrotation Yrotation Xrotation
					JOINT LeftShoulder1
					{
						OFFSET 3.53937 -0.14262 -0.08662
						CHANNELS 3 Zrotation Yrotation Xrotation
						JOINT LeftArm
						{
							OFFSET 4.04833 -0.00133 0.12681
							CHANNELS 3 Zrotation Yrotation Xrotation
							JOINT LeftForeArm
							{
								OFFSET 10.33880 -0.01036 -0.55515
								CHANNELS 3 Zrotation Yrotation Xrotation
								JOINT LeftHand
								{
									OFFSET 8.69677 0.07543 0.40060
									CHANNELS 3 Zrotation Yrotation Xrotation
									End Site
									{
										OFFSET 5.28377 -0.21905 0.59205
									}
								}
							}
						}
					}
				}
				JOINT RightShoulderDummy
				{
					OFFSET 0 0 0
					CHANNELS 3 Zrotation Yrotation Xrotation
					JOINT RightShoulder
					{
						OFFSET -3.53937 -0.14262 -0.08660
						CHANNELS 3 Zrotation Yrotation Xrotation
						JOINT RightArm
						{
							OFFSET -4.04833 -0.00133 0.12683
							CHANNELS 3 Zrotation Yrotation Xrotation
							JOINT RightForeArm
							{
								OFFSET -10.37987 -0.01039 -0.55511
								CHANNELS 3 Zrotation Yrotation Xrotation
								JOINT RightHand
								{
									OFFSET -8.67398 0.07538 0.40058
									CHANNELS 3 Zrotation Yrotation Xrotation
									End Site
									{
										OFFSET -5.24810 -0.21916 0.59204
									}
								}
							}
						}
					}
				}
			}
		}
	}
	JOINT LeftUpLegDummy
	{
		OFFSET 0 0 0
		CHANNELS 3 Zrotation Yrotation Xrotation
		JOINT LeftUpLeg
		{
			OFFSET 3.52197 -3.41223 0.04002
			CHANNELS 3 Zrotation Yrotation Xrotation
			JOINT LeftLeg
			{
				OFFSET -0.00012 -17.42399 1.60337
				CHANNELS 3 Zrotation Yrotation Xrotation
				JOINT LeftFoot
				{
					OFFSET -0.09972 -16.50070 -1.63802
					CHANNELS 3 Zrotation Yrotation Xrotation
					JOINT LeftToes
					{
						OFFSET -0.01575 -1.73823 3.34611
						CHANNELS 3 Zrotation Yrotation Xrotation
						End Site
						{
							OFFSET 0.03150 -0.01868 3.85031
						}
					}
				}
			}
		}
	}
}
MOTION
Frames: 9
Frame Time: 0.033333
-46.9090 39.7978 80.7319 -179.9250 2.9705 175.8220 0.0000 0.0000 0.0000 4.4830 -1.5250 2.3500 1.1298 -1.6963 3.9595 -5.1837 0.3381 -3.4135 0.0000 -0.0000 -0.0000 0.0000 0.0000 0.0000 0.4311 -0.8944 2.5993 1.8443 -1.3208 1.8611 -0.0000 0.0000 -0.0000 -0.9566 -1.8076 -8.6325 -0.0000 0.0000 -0.0000 -33.1529 -3.3787 2.6958 -43.2827 -15.4261 -27.5289 -5.1074 5.0209 53.3267 29.9454 -32.2217 -9.7991 -0.0000 0.0000 -0.0000 34.2786 5.1393 3.4824 40.2974 5.6395 -18.7969 10.0896 -1.5708 21.1099 -10.3810 1.7703 -0.6371 0.0000 0.0000 0.0000 0.2338 1.7775 1.4518 0.9604 4.0131 8.7890 2.9108 -0.0757 -6.6022 0.0000 0.0000 -0.0000
-46.9005 39.8012 80.7249 -179.8480 3.1381 175.7740 0.0000 0.0000 0.0000 4.6165 -1.4227 2.4993 1.0843 -1.6369 3.7797 -5.1731 0.3371 -3.3283 0.0000 -0.0000 -0.0000 0.0000 0.0000 0.0000 0.5394 -0.8378 2.6161 1.7464 -1.2493 2.0528 -0.0000 0.0000 -0.0000 -0.8951 -1.5886 -9.0052 -0.0000 0.0000 -0.0000 -32.8608 -3.3829 2.6772 -43.5789 -15.3299 -26.9165 -5.4847 5.0315 52.9048 29.7871 -31.4339 -9.5327 -0.0000 0.0000 -0.0000 34.1983 5.1271 3.4705 40.4856 5.7990 -18.8905 10.0212 -1.7323 21.4378 -10.9147 1.1472 -0.6167 0.0000 0.0000 0.0000 0.4462 2.1093 1.5572 0.7462 3.8366 8.7533 2.9759 -0.0799 -6.6154 0.0000 0.0000 -0.0000
-46.8913 39.8057 80.7086 -179.7740 3.2816 175.7110 0.0000 0.0000 0.0000 4.7570 -1.3097 2.6763 1.0160 -1.5969 3.6122 -5.1223 0.3337 -3.2602 0.0000 -0.0000 -0.0000 0.0000 0.0000 0.0000 0.5611 -0.7430 2.8095 1.6939 -1.1400 2.0275 -0.0000 0.0000 -0.0000 -0.7569 -1.3125 -9.6653 -0.0000 0.0000 -0.0000 -32.5266 -3.4142 2.6661 -43.9462 -15.0220 -26.2065 -5.9023 5.0327 52.7617 29.8433 -30.2160 -9.2253 -0.0000 0.0000 -0.0000 34.2835 5.1247 3.4770 40.5483 5.6921 -19.0629 9.9551 -1.7559 21.4960 -11.5178 0.5608 -0.5941 0.0000 0.0000 0.0000 0.6946 2.5092 1.7091 0.4510 3.5767 8.6903 3.1027 -0.0880 -6.6089 0.0000 0.0000 -0.0000
-46.8971 39.8094 80.6941 -179.7850 3.2184 175.7280 0.0000 0.0000 0.0000 4.7459 -1.3015 2.6902 0.9866 -1.6463 3.5960 -5.0811 0.3311 -3.2764 0.0000 -0.0000 -0.0000 0.0000 0.0000 0.0000 0.4733 -0.6654 3.0728 1.6211 -1.0351 1.6968 -0.0000 0.0000 -0.0000 -0.5322 -1.2338 -9.4128 -0.0000 0.0000 -0.0000 -32.2939 -3.5258 2.6927 -44.2513 -14.7910 -26.5406 -5.5426 4.9928 54.1004 30.4946 -29.0771 -9.1317 -0.0000 0.0000 -0.0000 34.6812 5.1578 3.5253 40.3288 5.1800 -19.1385 9.9877 -1.4236 21.0245 -11.4691 0.7193 -0.5965 0.0000 0.0000 0.0000 0.7103 2.5719 1.7542 0.3465 3.4507 8.5911 3.1771 -0.0928 -6.5435 0.0000 0.0000 -0.0000
-46.9142 39.8087 80.6795 -179.7900 3.1683 175.8150 0.0000 0.0000 0.0000 4.7193 -1.3011 2.6157 0.9728 -1.6936 3.6069 -5.1103 0.3330 -3.3121 0.0000 -0.0000 -0.0000 0.0000 0.0000 0.0000 0.4684 -0.5637 2.9743 1.4694 -0.8992 1.7360 -0.0000 0.0000 -0.0000 -0.3886 -1.4988 -8.9244 -0.0000 0.0000 -0.0000 -32.0294 -3.7112 2.7445 -44.7885 -14.7851 -27.2595 -4.9673 4.9831 54.5391 31.7297 -28.2758 -9.3034 -0.0000 0.0000 -0.0000 35.1693 5.2257 3.5962 40.0109 4.7707 -19.0291 10.1035 -1.0053 20.2285 -10.9564 1.2311 -0.6098 0.0000 0.0000 0.0000 0.6236 2.4328 1.6920 0.4270 3.5225 8.5495 3.1666 -0.0921 -6.5126 0.0000 0.0000 -0.0000
-46.9307 39.8063 80.6545 -179.7130 3.2828 175.8790 0.0000 0.0000 0.0000 4.8087 -1.2183 2.6063 0.9262 -1.6760 3.5707 -5.1507 0.3357 -3.3305 0.0000 -0.0000 -0.0000 0.0000 0.0000 0.0000 0.5826 -0.4282 2.5159 1.3823 -0.7548 2.3115 -0.0000 0.0000 -0.0000 -0.5289 -2.1747 -9.0393 -0.0000 0.0000 -0.0000 -31.8228 -3.8699 2.7897 -45.4049 -14.7501 -27.5030 -4.4431 4.8824 57.5831 36.4743 -26.6205 -10.2533 -0.0000 0.0000 -0.0000 35.4279 5.2838 3.6432 39.8150 4.7580 -18.8408 10.2106 -0.8146 19.5272 -10.7090 1.4182 -0.6158 0.0000 0.0000 0.0000 0.6413 2.3870 1.6319 0.5218 3.6595 8.6435 3.1516 -0.0912 -6.5859 0.0000 0.0000 -0.0000
-46.9498 39.8054 80.6199 -179.6430 3.2757 175.9060 0.0000 0.0000 0.0000 4.8704 -1.1692 2.6428 0.8820 -1.7316 3.5534 -5.1191 0.3338 -3.3702 0.0000 -0.0000 -0.0000 0.0000 0.0000 0.0000 0.6641 -0.4093 2.2442 1.4324 -0.7546 2.6484 -0.0000 0.0000 -0.0000 -0.7786 -2.8211 -9.0779 -0.0000 0.0000 -0.0000 -31.9432 -3.8934 2.8074 -45.6450 -14.4885 -27.3876 -4.0319 4.7145 62.4340 42.5578 -24.3135 -11.2740 -0.0000 0.0000 -0.0000 35.3663 5.2913 3.6408 39.8430 4.8356 -18.7762 10.2251 -0.8282 19.3473 -10.8951 1.3084 -0.6173 0.0000 0.0000 0.0000 0.6734 2.3949 1.6094 0.5507 3.6391 8.7480 3.1722 -0.0925 -6.6571 0.0000 0.0000 -0.0000
-46.9771 39.8087 80.5841 -179.6560 2.9424 175.9710 0.0000 0.0000 0.0000 4.7680 -1.2608 2.6331 0.9044 -1.9566 3.5501 -5.0748 0.3311 -3.4294 0.0000 -0.0000 -0.0000 0.0000 0.0000 0.0000 0.6866 -0.5738 2.3694 1.4222 -0.9181 2.2984 -0.0000 0.0000 -0.0000 -0.9045 -2.9415 -8.8067 -0.0000 0.0000 -0.0000 -32.2673 -3.8322 2.8080 -45.4039 -14.2042 -28.2090 -3.9217 4.8695 58.1278 35.9520 -25.7043 -9.8159 -0.0000 0.0000 -0.0000 35.2701 5.2742 3.6251 39.9498 4.6531 -18.8932 10.1607 -0.8299 19.6198 -11.0021 1.3723 -0.6290 0.0000 0.0000 0.0000 0.5869 2.2948 1.5774 0.5304 3.4064 8.6954 3.1788 -0.0929 -6.6200 0.0000 0.0000 -0.0000
-46.9947 39.8162 80.5425 -179.6640 2.7138 176.0820 0.0000 0.0000 0.0000 4.6895 -1.3335 2.6423 0.9483 -2.1041 3.4276 -5.1109 0.3334 -3.4260 0.0000 -0.0000 -0.0000 0.0000 0.0000 0.0000 0.8072 -0.6786 2.2789 1.1813 -0.9783 2.0938 -0.0000 0.0000 -0.0000 -0.8367 -2.7746 -8.3845 -0.0000 0.0000 -0.0000 -32.2964 -3.8798 2.8282 -45.4922 -14.0598 -29.0436 -3.5951 4.9680 55.2628 32.1920 -25.7764 -8.7314 -0.0000 0.0000 -0.0000 35.4206 5.2955 3.6475 39.9151 4.4593 -19.0770 10.0937 -0.8405 19.8068 -10.8261 1.6643 -0.6438 0.0000 0.0000 0.0000 0.5564 2.2641 1.5810 0.4364 3.1881 8.5146 3.1831 -0.0932 -6.5579 0.0000 0.0000 -0.0000
